<svg xmlns="http://www.w3.org/2000/svg" viewBox="0 0 128 128">
    <path fill="#E76F00" d="M47.6 112s-4 2.3 2.8 3.1c8.2 0.9 12.4 0.8 21.5-0.9 0 0 2.4 1.5 5.7 2.8C55.9 123.8 23.4 117.5 47.6 112z"/>
    <path fill="#E76F00" d="M44.8 96.2s-4.5 3.3 2.4 4c8.9 0.9 15.9 1 28.1-1.3 0 0 1.7 1.7 4.3 2.6C53.8 107.3 19.4 101.7 44.8 96.2z"/>
    <path fill="#E76F00" d="M69.3 70.6c5.1 5.8-1.3 11-1.3 11s12.9-6.7 7-15c-5.5-7.8-9.8-11.7 13.2-25.1C88.2 41.5 52.3 50.8 69.3 70.6z"/>
    <path fill="#5382A1" d="M75 1.8s11.8 11.8-11.2 29.9C44.3 47.3 59.3 56.1 63.8 66c-11.1-10-19.2-18.8-13.7-27C57.6 26.5 77.6 21.2 75 1.8z"/>
    <path fill="#E76F00" d="M99.3 124.9s3 2.5-3.3 4.4c-11.9 3.6-49.6 4.7-60.1 0.1-3.7-1.6 3.3-3.9 5.5-4.4C41.1 121 20.5 130.2 33.9 132.5c36.7 6.3 66.9-2.8 65.4-7.6z"/>
    <path fill="#E76F00" d="M49.3 80.4s-20.7 4.9-7.3 6.7c5.6 0.8 16.8 0.6 27.2-0.3 8.5-0.7 17.1-2.3 17.1-2.3s-3 1.3-5.2 2.8C60.3 92.1 26.3 89.7 35.8 84c8.1-5 13.5-3.6 13.5-3.6z"/>
    <path fill="#5382A1" d="M52.2 140.4c19.3 1.2 48.9-0.7 49.6-9.5 0 0-1.3 3.5-15.9 6.2-16.5 3.1-36.9 2.7-49 0.7C37.2 137.8 39.3 139.5 52.2 140.4z"/>
</svg>