<svg xmlns="http://www.w3.org/2000/svg" viewBox="0 0 128 128">
    <linearGradient id="pyBlue" x1="0" y1="0" x2="1" y2="1">
        <stop offset="0" stop-color="#387EB8"/>
        <stop offset="1" stop-color="#366994"/>
    </linearGradient>
    <linearGradient id="pyYellow" x1="0" y1="0" x2="1" y2="1">
        <stop offset="0" stop-color="#FFE052"/>
        <stop offset="1" stop-color="#FFC331"/>
    </linearGradient>
    <path fill="url(#pyBlue)" d="M63.9 2C44.7 2 45.9 10.2 45.9 10.2l0 8.5h18.4v2.5H28.9S16 19.6 16 39.1c0 19.4 10.7 18.7 10.7 18.7h6.4v-9c0 0-0.3-10.7 10.5-10.7h18.1s10.2 0.2 10.2-9.9V12.3S73.6 2 63.9 2zM54.1 7.8c1.8 0 3.3 1.5 3.3 3.3 0 1.8-1.5 3.3-3.3 3.3-1.8 0-3.3-1.5-3.3-3.3C50.8 9.3 52.3 7.8 54.1 7.8z"/>
    <path fill="url(#pyYellow)" d="M64.1 126c19.2 0 18-8.2 18-8.2l0-8.5H63.7v-2.5h35.4s12.9 1.6 12.9-17.9c0-19.4-10.7-18.7-10.7-18.7h-6.4v9c0 0 0.3 10.7-10.5 10.7H66.3s-10.2-0.2-10.2 9.9v15.9S54.4 126 64.1 126zM73.9 120.2c-1.8 0-3.3-1.5-3.3-3.3 0-1.8 1.5-3.3 3.3-3.3 1.8 0 3.3 1.5 3.3 3.3C77.2 118.7 75.7 120.2 73.9 120.2z"/>
</svg>